<?xml version="1.0" encoding="UTF-8" standalone="no"?>
<svg
   xmlns:dc="http://purl.org/dc/elements/1.1/"
   xmlns:cc="http://creativecommons.org/ns#"
   xmlns:rdf="http://www.w3.org/1999/02/22-rdf-syntax-ns#"
   xmlns:svg="http://www.w3.org/2000/svg"
   xmlns="http://www.w3.org/2000/svg"
   xmlns:sodipodi="http://sodipodi.sourceforge.net/DTD/sodipodi-0.dtd"
   xmlns:inkscape="http://www.inkscape.org/namespaces/inkscape"
   width="500"
   height="580"
   viewBox="0 0 132.29166 153.45834"
   version="1.1"
   id="svg2443"
   inkscape:version="1.0.2 (e86c870879, 2021-01-15)"
   sodipodi:docname="logo.svg">
  <defs
     id="defs2437" />
  <sodipodi:namedview
     id="base"
     pagecolor="#ffffff"
     bordercolor="#666666"
     borderopacity="1.0"
     inkscape:pageopacity="0.0"
     inkscape:pageshadow="2"
     inkscape:zoom="0.7"
     inkscape:cx="464.50495"
     inkscape:cy="458.11183"
     inkscape:document-units="mm"
     inkscape:current-layer="layer1"
     inkscape:document-rotation="0"
     showgrid="false"
     inkscape:window-width="1920"
     inkscape:window-height="1016"
     inkscape:window-x="1920"
     inkscape:window-y="27"
     inkscape:window-maximized="1"
     units="px" />
  <metadata
     id="metadata2440">
    <rdf:RDF>
      <cc:Work
         rdf:about="">
        <dc:format>image/svg+xml</dc:format>
        <dc:type
           rdf:resource="http://purl.org/dc/dcmitype/StillImage" />
        <dc:title />
      </cc:Work>
    </rdf:RDF>
  </metadata>
  <g
     inkscape:label="Layer 1"
     inkscape:groupmode="layer"
     id="layer1">
    <g
       id="g1748"
       transform="matrix(0.35277777,0,0,-0.35277777,-568.73692,216.05294)"
       style="fill:#ffffff">
      <path
         d="m 1800.69,238.35 c -2.6,0 -4.71,2.11 -4.71,4.72 v 29.31 c 0,2.61 2.11,4.72 4.71,4.72 2.61,0 4.72,-2.11 4.72,-4.72 v -29.31 c 0,-2.61 -2.11,-4.72 -4.72,-4.72"
         style="fill:#ffffff;fill-opacity:1;fill-rule:nonzero;stroke:none;stroke-width:0.1"
         id="path1199" />
      <path
         d="m 1671.76,314.34 c -1.63,0 -3.21,0.84 -4.09,2.36 -1.3,2.26 -0.53,5.14 1.73,6.44 l 24.78,14.31 c 2.24,1.3 5.13,0.54 6.44,-1.73 1.3,-2.26 0.53,-5.14 -1.73,-6.45 l -24.77,-14.3 c -0.74,-0.43 -1.55,-0.63 -2.36,-0.63"
         style="fill:#ffffff;fill-opacity:1;fill-rule:nonzero;stroke:none;stroke-width:0.1"
         id="path1201" />
      <path
         d="m 1722.46,334.91 c -8.06,0 -14.62,6.6 -14.62,14.67 0,8.07 6.56,14.67 14.62,14.67 8.07,0 14.67,-6.6 14.67,-14.67 0,-8.07 -6.6,-14.67 -14.67,-14.67 z m 0,38.78 c -13.25,0 -24.06,-10.81 -24.06,-24.11 0,-13.3 10.81,-24.1 24.06,-24.1 13.31,0 24.11,10.8 24.11,24.1 0,13.3 -10.8,24.11 -24.11,24.11"
         style="fill:#ffffff;fill-opacity:1;fill-rule:nonzero;stroke:none;stroke-width:0.1"
         id="path1203" />
      <path
         d="m 1644.25,288.3 c -8.11,0 -14.67,6.61 -14.67,14.67 0,8.07 6.56,14.67 14.67,14.67 8.07,0 14.62,-6.6 14.62,-14.67 0,-8.06 -6.55,-14.67 -14.62,-14.67 z m 0,38.78 c -13.3,0 -24.1,-10.8 -24.1,-24.11 0,-13.3 10.8,-24.1 24.1,-24.1 13.26,0 24.06,10.8 24.06,24.1 0,13.31 -10.8,24.11 -24.06,24.11"
         style="fill:#ffffff;fill-opacity:1;fill-rule:nonzero;stroke:none;stroke-width:0.1"
         id="path1205" />
      <path
         d="m 1800.68,196.36 c -8.07,0 -14.63,6.61 -14.63,14.67 0,8.07 6.56,14.67 14.63,14.67 8.11,0 14.67,-6.6 14.67,-14.67 0,-8.06 -6.56,-14.67 -14.67,-14.67 z m 0,38.78 c -13.26,0 -24.06,-10.81 -24.06,-24.11 0,-13.3 10.8,-24.1 24.06,-24.1 13.3,0 24.1,10.8 24.1,24.1 0,13.3 -10.8,24.11 -24.1,24.11"
         style="fill:#ffffff;fill-opacity:1;fill-rule:nonzero;stroke:none;stroke-width:0.1"
         id="path1207" />
      <path
         d="m 1878.92,373.31 c -2.61,0 -4.72,2.11 -4.72,4.72 v 29.31 c 0,2.61 2.11,4.72 4.72,4.72 2.61,0 4.72,-2.11 4.72,-4.72 v -29.31 c 0,-2.61 -2.11,-4.72 -4.72,-4.72"
         style="fill:#ffffff;fill-opacity:1;fill-rule:nonzero;stroke:none;stroke-width:0.1"
         id="path1209" />
      <path
         d="m 1829.37,314.46 c -1.64,0 -3.22,0.85 -4.09,2.36 -1.31,2.26 -0.54,5.14 1.72,6.45 l 22.42,12.95 c 2.25,1.3 5.14,0.54 6.45,-1.73 1.3,-2.26 0.53,-5.14 -1.73,-6.45 l -22.42,-12.95 c -0.74,-0.42 -1.55,-0.63 -2.35,-0.63"
         style="fill:#ffffff;fill-opacity:1;fill-rule:nonzero;stroke:none;stroke-width:0.1"
         id="path1211" />
      <path
         d="m 1771.48,314.78 c -0.8,0 -1.61,0.2 -2.35,0.63 l -21.89,12.63 c -2.26,1.31 -3.03,4.19 -1.73,6.45 1.31,2.26 4.19,3.03 6.45,1.73 l 21.89,-12.64 c 2.25,-1.3 3.03,-4.19 1.72,-6.45 -0.87,-1.51 -2.46,-2.35 -4.09,-2.35"
         style="fill:#ffffff;fill-opacity:1;fill-rule:nonzero;stroke:none;stroke-width:0.1"
         id="path1213" />
      <path
         d="m 1722.47,377.11 c -2.61,0 -4.72,2.11 -4.72,4.72 v 23.7 c 0,2.61 2.11,4.72 4.72,4.72 2.6,0 4.71,-2.11 4.71,-4.72 v -23.7 c 0,-2.61 -2.11,-4.72 -4.71,-4.72"
         style="fill:#ffffff;fill-opacity:1;fill-rule:nonzero;stroke:none;stroke-width:0.1"
         id="path1215" />
      <path
         d="m 1749.99,449.3 c -1.63,0 -3.21,0.84 -4.09,2.36 -1.3,2.25 -0.53,5.14 1.73,6.44 l 24.77,14.31 c 2.25,1.31 5.14,0.54 6.45,-1.73 1.3,-2.25 0.53,-5.14 -1.73,-6.44 l -24.77,-14.31 c -0.75,-0.43 -1.56,-0.63 -2.36,-0.63"
         style="fill:#ffffff;fill-opacity:1;fill-rule:nonzero;stroke:none;stroke-width:0.1"
         id="path1217" />
      <path
         d="m 1852.62,448.59 c -0.8,0 -1.61,0.21 -2.35,0.63 l -26.01,15.02 c -2.26,1.3 -3.03,4.19 -1.73,6.44 1.3,2.26 4.2,3.04 6.45,1.73 l 26,-15.01 c 2.26,-1.31 3.04,-4.19 1.73,-6.45 -0.87,-1.51 -2.46,-2.36 -4.09,-2.36"
         style="fill:#ffffff;fill-opacity:1;fill-rule:nonzero;stroke:none;stroke-width:0.1"
         id="path1219" />
      <path
         d="m 1800.68,469.87 c -8.07,0 -14.63,6.61 -14.63,14.67 0,8.07 6.56,14.67 14.63,14.67 8.11,0 14.67,-6.6 14.67,-14.67 0,-8.06 -6.56,-14.67 -14.67,-14.67 z m 0,38.78 c -13.26,0 -24.06,-10.8 -24.06,-24.11 0,-13.3 10.8,-24.1 24.06,-24.1 13.3,0 24.1,10.8 24.1,24.1 0,13.31 -10.8,24.11 -24.1,24.11"
         style="fill:#ffffff;fill-opacity:1;fill-rule:nonzero;stroke:none;stroke-width:0.1"
         id="path1221" />
      <path
         d="m 1722.46,423.31 c -8.06,0 -14.62,6.56 -14.62,14.63 0,8.06 6.56,14.62 14.62,14.62 8.07,0 14.67,-6.56 14.67,-14.62 0,-8.07 -6.6,-14.63 -14.67,-14.63 z m 0,38.69 c -13.25,0 -24.06,-10.81 -24.06,-24.06 0,-13.26 10.81,-24.06 24.06,-24.06 13.31,0 24.11,10.8 24.11,24.06 0,13.25 -10.8,24.06 -24.11,24.06"
         style="fill:#ffffff;fill-opacity:1;fill-rule:nonzero;stroke:none;stroke-width:0.1"
         id="path1223" />
      <path
         d="m 1878.94,423.31 c -8.12,0 -14.67,6.56 -14.67,14.63 0,8.06 6.55,14.62 14.67,14.62 8.06,0 14.62,-6.56 14.62,-14.62 0,-8.07 -6.56,-14.63 -14.62,-14.63 z m 0,38.69 c -13.31,0 -24.11,-10.81 -24.11,-24.06 0,-13.26 10.8,-24.06 24.11,-24.06 13.25,0 24.06,10.8 24.06,24.06 0,13.25 -10.81,24.06 -24.06,24.06"
         style="fill:#ffffff;fill-opacity:1;fill-rule:nonzero;stroke:none;stroke-width:0.1"
         id="path1225" />
      <path
         d="m 1878.94,331.32 c -8.12,0 -14.67,6.61 -14.67,14.68 0,8.06 6.55,14.67 14.67,14.67 8.06,0 14.62,-6.61 14.62,-14.67 0,-8.07 -6.56,-14.68 -14.62,-14.68 z m 0,38.78 c -13.31,0 -24.11,-10.8 -24.11,-24.1 0,-13.31 10.8,-24.11 24.11,-24.11 13.25,0 24.06,10.8 24.06,24.11 0,13.3 -10.81,24.1 -24.06,24.1"
         style="fill:#ffffff;fill-opacity:1;fill-rule:nonzero;stroke:none;stroke-width:0.1"
         id="path1227" />
      <path
         d="m 1800.68,289.58 c -8.07,0 -14.63,6.55 -14.63,14.62 0,8.07 6.56,14.67 14.63,14.67 8.11,0 14.67,-6.6 14.67,-14.67 0,-8.07 -6.56,-14.62 -14.67,-14.62 z m 0,38.73 c -13.26,0 -24.06,-10.81 -24.06,-24.11 0,-13.26 10.8,-24.06 24.06,-24.06 13.3,0 24.1,10.8 24.1,24.06 0,13.3 -10.8,24.11 -24.1,24.11"
         style="fill:#ffffff;fill-opacity:1;fill-rule:nonzero;stroke:none;stroke-width:0.1"
         id="path1229" />
      <path
         d="m 1927.94,314.63 c -0.8,0 -1.62,0.21 -2.36,0.63 l -21.88,12.64 c -2.26,1.31 -3.04,4.19 -1.73,6.45 1.3,2.25 4.19,3.03 6.44,1.72 l 21.89,-12.63 c 2.26,-1.31 3.03,-4.19 1.73,-6.45 -0.88,-1.51 -2.46,-2.36 -4.09,-2.36"
         style="fill:#ffffff;fill-opacity:1;fill-rule:nonzero;stroke:none;stroke-width:0.1"
         id="path1231" />
      <path
         d="m 1957.15,289.43 c -8.07,0 -14.67,6.56 -14.67,14.63 0,8.06 6.6,14.67 14.67,14.67 8.07,0 14.63,-6.61 14.63,-14.67 0,-8.07 -6.56,-14.63 -14.63,-14.63 z m 0,38.73 c -13.3,0 -24.11,-10.8 -24.11,-24.1 0,-13.26 10.81,-24.06 24.11,-24.06 13.26,0 24.06,10.8 24.06,24.06 0,13.3 -10.8,24.1 -24.06,24.1"
         style="fill:#ffffff;fill-opacity:1;fill-rule:nonzero;stroke:none;stroke-width:0.1"
         id="path1233" />
      <path
         d="m 1800.69,512.9 c -2.6,0 -4.71,2.1 -4.71,4.71 v 29.31 c 0,2.61 2.11,4.72 4.71,4.72 2.61,0 4.72,-2.11 4.72,-4.72 v -29.31 c 0,-2.61 -2.11,-4.71 -4.72,-4.71"
         style="fill:#ffffff;fill-opacity:1;fill-rule:nonzero;stroke:none;stroke-width:0.1"
         id="path1235" />
      <path
         d="m 1904.86,451.91 c -1.63,0 -3.22,0.85 -4.09,2.36 -1.31,2.26 -0.53,5.14 1.72,6.45 l 24.78,14.3 c 2.24,1.3 5.13,0.54 6.44,-1.73 1.31,-2.25 0.53,-5.14 -1.72,-6.44 l -24.78,-14.3 c -0.74,-0.43 -1.55,-0.64 -2.35,-0.64"
         style="fill:#ffffff;fill-opacity:1;fill-rule:nonzero;stroke:none;stroke-width:0.1"
         id="path1237" />
      <path
         d="m 1957.15,472.37 c -8.07,0 -14.67,6.56 -14.67,14.63 0,8.11 6.6,14.67 14.67,14.67 8.07,0 14.63,-6.56 14.63,-14.67 0,-8.07 -6.56,-14.63 -14.63,-14.63 z m 0,38.73 c -13.3,0 -24.11,-10.8 -24.11,-24.1 0,-13.26 10.81,-24.06 24.11,-24.06 13.26,0 24.06,10.8 24.06,24.06 0,13.3 -10.8,24.1 -24.06,24.1"
         style="fill:#ffffff;fill-opacity:1;fill-rule:nonzero;stroke:none;stroke-width:0.1"
         id="path1239" />
      <path
         d="m 1800.68,564.31 c -8.07,0 -14.63,6.56 -14.63,14.67 0,8.07 6.56,14.63 14.63,14.63 8.11,0 14.67,-6.56 14.67,-14.63 0,-8.11 -6.56,-14.67 -14.67,-14.67 z m 0,38.73 c -13.26,0 -24.06,-10.8 -24.06,-24.06 0,-13.3 10.8,-24.1 24.06,-24.1 13.3,0 24.1,10.8 24.1,24.1 0,13.26 -10.8,24.06 -24.1,24.06"
         style="fill:#ffffff;fill-opacity:1;fill-rule:nonzero;stroke:none;stroke-width:0.1"
         id="path1241" />
      <path
         d="m 1695.32,453.29 c -0.8,0 -1.61,0.2 -2.35,0.63 l -21.89,12.64 c -2.26,1.3 -3.03,4.18 -1.73,6.44 1.31,2.25 4.19,3.03 6.45,1.73 l 21.89,-12.64 c 2.25,-1.3 3.03,-4.19 1.72,-6.44 -0.87,-1.51 -2.46,-2.36 -4.09,-2.36"
         style="fill:#ffffff;fill-opacity:1;fill-rule:nonzero;stroke:none;stroke-width:0.1"
         id="path1243" />
      <path
         d="m 1644.25,471.29 c -8.11,0 -14.67,6.55 -14.67,14.62 0,8.12 6.56,14.67 14.67,14.67 8.07,0 14.62,-6.55 14.62,-14.67 0,-8.07 -6.55,-14.62 -14.62,-14.62 z m 0,38.73 c -13.3,0 -24.1,-10.81 -24.1,-24.11 0,-13.25 10.8,-24.06 24.1,-24.06 13.26,0 24.06,10.81 24.06,24.06 0,13.3 -10.8,24.11 -24.06,24.11"
         style="fill:#ffffff;fill-opacity:1;fill-rule:nonzero;stroke:none;stroke-width:0.1"
         id="path1245" />
    </g>
  </g>
</svg>
