<?xml version="1.0" encoding="UTF-8" standalone="no"?>
<svg
   height="1000"
   width="1000"
   viewBox="0 0 2500 2500"
   version="1.1"
   id="svg1221"
   sodipodi:docname="map-icon.svg"
   inkscape:version="1.1 (c68e22c387, 2021-05-23)"
   xmlns:inkscape="http://www.inkscape.org/namespaces/inkscape"
   xmlns:sodipodi="http://sodipodi.sourceforge.net/DTD/sodipodi-0.dtd"
   xmlns="http://www.w3.org/2000/svg"
   xmlns:svg="http://www.w3.org/2000/svg">
  <defs
     id="defs1225" />
  <sodipodi:namedview
     id="namedview1223"
     pagecolor="#ffffff"
     bordercolor="#666666"
     borderopacity="1.0"
     inkscape:pageshadow="2"
     inkscape:pageopacity="0.0"
     inkscape:pagecheckerboard="0"
     showgrid="false"
     inkscape:zoom="0.77163028"
     inkscape:cx="474.32042"
     inkscape:cy="487.92798"
     inkscape:window-width="2560"
     inkscape:window-height="1376"
     inkscape:window-x="1920"
     inkscape:window-y="27"
     inkscape:window-maximized="1"
     inkscape:current-layer="svg1221" />
  <path
     id="path1219"
     style="fill:#000000;stroke:#000000;stroke-width:1.84585;stroke-opacity:1"
     d="m 345.73276,852.58816 c -28.73838,0 -52.51995,-22.78961 -52.51995,-51.52795 V 688.08468 c 0,-28.73834 23.78157,-51.52795 52.51995,-51.52795 h 59.45873 l 74.32338,-109.99964 c -12.88269,-1.98193 -26.75449,-5.94494 -37.65525,-8.91789 l -186.30688,74.32345 v 145.67099 c 0,28.73834 -22.78962,51.53279 -51.528,51.53279 H 91.054147 c -28.738393,0 -51.53283,-22.79445 -51.53283,-51.53279 V 624.66295 c 0,-28.73834 22.794437,-51.52795 51.53283,-51.52795 H 246.6349 l 156.57752,-67.38948 c -17.83761,-7.92782 -27.7503,-18.82764 -27.7503,-28.73739 0,-26.75643 73.33338,-49.54894 164.50345,-49.54894 91.16997,0 164.50345,21.80058 164.50345,48.55697 0,9.90986 -9.9127,21.80154 -27.75027,29.72936 L 834.28816,573.135 h 144.67903 c 28.73831,0 51.53281,22.78961 51.53281,51.52795 v 112.97069 c 0,28.73834 -22.7945,51.53279 -51.53281,51.53279 H 865.9966 c -28.73844,0 -51.52805,-22.79445 -51.52805,-51.53279 V 591.96265 L 633.11662,515.65538 c -10.90077,1.98192 -20.81062,8.91978 -34.68428,10.90171 l 76.30732,109.99964 h 50.54082 c 27.74754,0 51.52805,22.78961 51.52805,51.52795 v 112.97553 c 0,28.73834 -23.78051,51.52795 -51.52805,51.52795 H 612.30505 c -28.73836,0 -51.52797,-22.78961 -51.52797,-51.52795 V 688.08468 c 0,-28.73834 22.78961,-51.52795 51.52797,-51.52795 h 28.74224 L 567.71105,529.52804 c -8.91882,0 -17.8357,-1.97898 -27.74548,-1.97898 -8.91882,0 -18.82666,2.97094 -27.74548,2.97094 l -72.34436,106.03673 h 17.84052 c 28.73837,0 51.52798,22.78961 51.52798,51.52795 v 112.97553 c 0,28.73834 -22.78961,51.52795 -51.52798,51.52795 z m 3.96294,-25.76645 h 104.05278 c 16.84664,0 30.7213,-13.86982 30.7213,-30.71648 V 693.03955 c 0,-16.84655 -13.87466,-30.71637 -30.7213,-30.71637 H 349.6957 c -16.84664,0 -30.71646,13.86982 -30.71646,30.71637 v 103.06568 c 0,16.84666 13.86982,30.71648 30.71646,30.71648 z m 267.56423,0 h 103.06568 c 16.84666,0 30.71648,-13.86982 30.71648,-30.71648 V 693.03955 c 0,-16.84655 -13.86982,-30.71637 -30.71648,-30.71637 H 617.25993 c -17.8376,0 -31.70839,13.86982 -31.70839,30.71637 v 103.06568 c 0,16.84666 13.87079,30.71648 31.70839,30.71648 z M 96.009043,763.39998 H 199.06984 c 16.84664,0 30.72131,-13.87466 30.72131,-30.72132 V 629.61793 c 0,-16.84666 -13.87467,-30.72143 -30.72131,-30.72143 H 96.009043 c -16.846649,0 -30.721311,13.87477 -30.721311,30.72143 v 103.06073 c 0,16.84666 13.874662,30.72132 30.721311,30.72132 z m 774.942327,0 h 103.06095 c 16.84655,0 30.72128,-13.87466 30.72128,-30.72132 V 629.61793 c 0,-16.84666 -13.87473,-30.72143 -30.72128,-30.72143 H 870.95137 c -16.84655,0 -30.72121,13.87477 -30.72121,30.72143 v 103.06073 c 0,16.84666 13.87466,30.72132 30.72121,30.72132 z M 540.63331,424.66238 c -4.95442,0 -9.90881,-2.22774 -13.87273,-6.68715 L 384.06062,266.35742 c -6.93688,-7.92782 -3.96684,-15.85661 6.93393,-15.85661 h 59.45873 c 10.90077,0 21.80343,-6.93493 21.80343,-17.8357 V 70.140726 C 408.8341,61.221929 330.54388,35.457483 330.54388,-32.920132 v -4.954865 -1.979044 h 9.90978 c 7.92783,77.296329 180.36005,79.278289 200.17965,79.278289 19.81955,0 192.25178,-1.98196 200.1796,-79.278289 h 9.90986 l 0.98701,1.979044 c 0,1.98196 0.99207,2.972904 0.99207,4.954865 0,68.377615 -77.29344,94.142061 -140.71612,103.060858 V 232.66511 c 0,10.90077 7.92688,17.8357 18.82765,17.8357 h 60.45068 c 10.90066,0 13.86981,7.92879 5.94189,15.85661 L 554.50602,417.97523 c -3.96391,4.45937 -8.91829,6.68715 -13.87271,6.68715 z M 448.77906,21.791757 V -88.957797 c 0,-21.411933 16.97884,-38.395563 38.39075,-38.395563 h 102.63018 c 21.41199,0 38.39072,16.98363 38.39072,38.395563 V 21.791757 L 600.13558,-4.7875243 V -75.6705 c 0,-13.290288 -10.33552,-23.622898 -22.88735,-23.622898 h -77.52667 c -12.55183,0 -22.88735,10.33261 -22.88735,23.622898 v 70.8829757 z" />
</svg>
