<?xml version="1.0" encoding="UTF-8" standalone="no"?>
<!-- Created with Inkscape (http://www.inkscape.org/) -->

<svg
   width="45mm"
   height="45mm"
   viewBox="0 0 45 45"
   version="1.1"
   id="svg5"
   xml:space="preserve"
   inkscape:version="1.3 (0e150ed6c4, 2023-07-21)"
   sodipodi:docname="lambda.svg"
   xmlns:inkscape="http://www.inkscape.org/namespaces/inkscape"
   xmlns:sodipodi="http://sodipodi.sourceforge.net/DTD/sodipodi-0.dtd"
   xmlns="http://www.w3.org/2000/svg"
   xmlns:svg="http://www.w3.org/2000/svg"><sodipodi:namedview
     id="namedview7"
     pagecolor="#ffffff"
     bordercolor="#000000"
     borderopacity="0.25"
     inkscape:showpageshadow="2"
     inkscape:pageopacity="0.0"
     inkscape:pagecheckerboard="0"
     inkscape:deskcolor="#d1d1d1"
     inkscape:document-units="mm"
     showgrid="false"
     inkscape:zoom="0.89263468"
     inkscape:cx="353.44806"
     inkscape:cy="292.95299"
     inkscape:window-width="2560"
     inkscape:window-height="1285"
     inkscape:window-x="1920"
     inkscape:window-y="32"
     inkscape:window-maximized="1"
     inkscape:current-layer="layer1" /><defs
     id="defs2" /><g
     inkscape:label="Layer 1"
     inkscape:groupmode="layer"
     id="layer1"><path
       style="fill:#054848;fill-opacity:1;stroke-width:0.097722"
       d="M 21.125016,44.719383 C 15.224264,44.204443 9.6865504,41.36767 6.0106344,36.976827 2.6298844,32.938556 0.74995136,27.852078 0.74995136,22.743149 c 0,-9.671042 6.20263604,-18.2022247 15.36827864,-21.1377201 2.297124,-0.73570228 4.140506,-1.01512518 6.716925,-1.01816068 3.499684,-0.00418 6.424097,0.63861968 9.430184,2.07261698 7.36246,3.5121205 12.135238,10.5387478 12.650395,18.6242908 0.39679,6.227765 -1.815549,12.221277 -6.170545,16.716804 -2.543468,2.625545 -5.437895,4.462677 -8.825181,5.601462 -2.821533,0.948581 -6.040195,1.357342 -8.794992,1.116941 z m 3.22483,-4.4298 c 6.355198,-0.585933 11.739716,-4.30671 14.466901,-9.996822 1.123978,-2.345115 1.594736,-4.312028 1.67663,-7.005281 0.0966,-3.176863 -0.412952,-5.639314 -1.72894,-8.355242 -0.96863,-1.999044 -2.071866,-3.498213 -3.7584,-5.1072165 C 32.416752,7.3547667 29.27078,5.7893443 25.717954,5.2033094 24.262936,4.963308 21.6784,4.9406931 20.272882,5.1556715 15.288328,5.9180594 10.96258,8.6557583 8.1651194,12.818482 c -4.190045,6.234939 -3.961298,14.481554 0.568821,20.506689 3.6205766,4.81543 9.6686026,7.51274 15.6159056,6.964415 z m 3.720305,-6.1249 c -0.373048,-0.980257 -4.784709,-12.130886 -4.837946,-12.22808 -0.04545,-0.08297 -1.368088,1.914323 -3.688651,5.570161 l -3.617801,5.699512 -2.262046,0.02624 c -1.459347,0.01692 -2.262044,-0.0084 -2.262044,-0.07142 0,-0.05372 2.267978,-3.758791 5.039949,-8.233509 l 5.039949,-8.135854 -0.367644,-1.076325 c -0.202205,-0.591979 -0.460933,-1.318187 -0.574953,-1.613796 l -0.207309,-0.537471 -1.975139,-0.02646 -1.975141,-0.02646 0.02648,-1.927981 0.02649,-1.9279828 3.333965,-0.025701 c 2.594372,-0.020002 3.355212,0.0017 3.429735,0.09772 0.05267,0.067875 1.822204,4.5209168 3.932293,9.8956328 2.110092,5.374718 3.842849,9.778054 3.850568,9.785192 0.0077,0.0072 0.739625,-0.222776 1.626452,-0.510918 0.886827,-0.288141 1.657611,-0.524851 1.712849,-0.52602 0.125187,-0.0026 1.245538,3.727705 1.145242,3.813223 -0.04016,0.03424 -1.65611,0.515465 -3.591008,1.069388 -1.934899,0.553921 -3.56729,1.025224 -3.627537,1.047339 -0.06025,0.02211 -0.139793,-0.03927 -0.176761,-0.13642 z"
       id="path1" /></g></svg>
