<?xml version="1.0" encoding="UTF-8" standalone="no"?>
<!-- Created with Inkscape (http://www.inkscape.org/) -->

<svg
   width="25mm"
   height="25mm"
   viewBox="0 0 25 25"
   version="1.1"
   id="svg5"
   inkscape:version="1.1 (c68e22c387, 2021-05-23)"
   sodipodi:docname="outlet.svg"
   xmlns:inkscape="http://www.inkscape.org/namespaces/inkscape"
   xmlns:sodipodi="http://sodipodi.sourceforge.net/DTD/sodipodi-0.dtd"
   xmlns="http://www.w3.org/2000/svg"
   xmlns:svg="http://www.w3.org/2000/svg">
  <sodipodi:namedview
     id="namedview7"
     pagecolor="#ffffff"
     bordercolor="#666666"
     borderopacity="1.0"
     inkscape:pageshadow="2"
     inkscape:pageopacity="0.0"
     inkscape:pagecheckerboard="0"
     inkscape:document-units="mm"
     showgrid="false"
     inkscape:zoom="3.0075196"
     inkscape:cx="43.889988"
     inkscape:cy="97.921224"
     inkscape:window-width="1920"
     inkscape:window-height="1016"
     inkscape:window-x="0"
     inkscape:window-y="27"
     inkscape:window-maximized="1"
     inkscape:current-layer="layer1" />
  <defs
     id="defs2" />
  <g
     inkscape:label="Layer 1"
     inkscape:groupmode="layer"
     id="layer1">
    <path class="outlet-svg"
       style="fill:#000000;stroke-width:0.264583"
       id="outlet"
       d="" />
    <path
       style="fill:#000000;stroke-width:0.264583"
       id="path836"
       d="" />
    <path
       style="fill:#6b8791;fill-opacity:1;stroke-width:0.0390197"
       d="M 6.1009291,20.195429 C 5.3513757,19.356477 4.9587385,18.77818 4.5013623,17.839495 3.539664,15.865779 3.0480145,13.636099 3.1734063,11.817083 3.311945,9.8073621 4.0100397,7.6434184 5.0319859,6.0558881 5.3791454,5.5165983 5.5954455,5.2446374 6.1968979,4.5912075 L 6.6580014,4.0902563 h 6.2322936 6.232296 l 0.41581,0.4443488 c 0.574411,0.6138354 0.858525,0.961618 1.148957,1.4064356 1.033375,1.5826846 1.745478,3.6860022 1.91666,5.6611933 0.16186,1.867623 -0.290497,4.085554 -1.235044,6.05547 -0.500606,1.044046 -0.849656,1.565657 -1.66979,2.495284 l -0.499146,0.565785 H 12.884272 6.5685069 Z m 8.4044019,-3.244522 c 0,-0.572156 -0.08288,-0.870252 -0.338749,-1.218416 -0.19863,-0.270276 -0.565096,-0.549159 -0.829437,-0.631206 -0.08893,-0.0276 -0.302531,-0.04966 -0.474655,-0.049 -0.282267,0.0011 -0.341402,0.01559 -0.603061,0.148099 -0.206084,0.104364 -0.351644,0.21502 -0.50258,0.382067 -0.359783,0.398185 -0.489501,0.787813 -0.489501,1.470295 v 0.348224 h 1.618992 1.618991 z m 2.458218,-2.969914 c 0.543612,-0.123841 0.62557,-0.231649 0.705364,-0.927835 0.05074,-0.44267 0.02155,-4.149586 -0.03481,-4.4206713 l -0.02874,-0.1382416 -0.962168,-0.066069 c -0.529191,-0.036336 -1.00987,-0.067446 -1.068174,-0.069121 l -0.106004,-0.00306 3.46e-4,2.1032509 c 3.09e-4,1.886032 0.03368,3.001815 0.09927,3.319143 0.0125,0.06047 0.06439,0.137933 0.115331,0.172128 0.198025,0.132948 0.769964,0.146566 1.279591,0.03047 z m -7.1513664,-7.3e-4 0.4143854,-0.02633 V 11.233964 8.514015 H 9.1917346 8.1569005 l -0.024965,0.7208324 c -0.1162535,3.3565306 -0.061538,4.3403506 0.2551721,4.5875446 0.1742328,0.135992 0.5599983,0.225286 0.8565018,0.198256 0.084806,-0.0077 0.3406631,-0.02591 0.5685747,-0.0404 z"
       id="path916" />
  </g>
</svg>
