<?xml version="1.0" encoding="UTF-8" standalone="no"?>
<!-- Created with Inkscape (http://www.inkscape.org/) -->

<svg
   width="60mm"
   height="60mm"
   viewBox="0 0 60 60"
   version="1.1"
   id="svg5"
   xml:space="preserve"
   inkscape:version="1.2.2 (b0a8486541, 2022-12-01)"
   sodipodi:docname="swagger.svg"
   xmlns:inkscape="http://www.inkscape.org/namespaces/inkscape"
   xmlns:sodipodi="http://sodipodi.sourceforge.net/DTD/sodipodi-0.dtd"
   xmlns="http://www.w3.org/2000/svg"
   xmlns:svg="http://www.w3.org/2000/svg"><sodipodi:namedview
     id="namedview7"
     pagecolor="#ffffff"
     bordercolor="#000000"
     borderopacity="0.25"
     inkscape:showpageshadow="2"
     inkscape:pageopacity="0.0"
     inkscape:pagecheckerboard="0"
     inkscape:deskcolor="#d1d1d1"
     inkscape:document-units="mm"
     showgrid="false"
     inkscape:zoom="3.5705387"
     inkscape:cx="165.52124"
     inkscape:cy="126.87161"
     inkscape:window-width="2560"
     inkscape:window-height="1285"
     inkscape:window-x="1920"
     inkscape:window-y="32"
     inkscape:window-maximized="1"
     inkscape:current-layer="layer1" /><defs
     id="defs2" /><g
     inkscape:label="Layer 1"
     inkscape:groupmode="layer"
     id="layer1"><path
       style="fill:#000000;stroke-width:0.264583"
       d="M 26.034147,59.49719 C 23.667912,59.197833 20.140022,58.187881 17.805424,57.141502 13.28298,55.114513 7.9846726,50.631371 5.3108636,46.569273 -2.7527674,34.318864 -0.95460343,18.541139 9.6534866,8.4655625 19.707949,-1.0841754 34.731527,-2.3617417 46.539355,5.3288838 c 2.212811,1.4412399 6.726232,5.9546602 8.167471,8.1674722 6.653945,10.216156 6.653945,22.856762 0,33.072917 -1.441239,2.212811 -5.95466,6.726232 -8.167471,8.16747 -6.175179,4.021995 -13.288613,5.673434 -20.505208,4.760447 z m 10.847916,-3.388929 c 2.658322,-0.727244 6.569195,-2.562103 8.691965,-4.077993 2.081387,-1.48634 4.939983,-4.344935 6.426322,-6.426322 1.546767,-2.166009 3.359274,-6.05441 4.113265,-8.824256 0.527672,-1.938449 0.612198,-2.869978 0.612198,-6.746875 0,-5.254591 -0.43026,-7.315983 -2.394077,-11.47009 -1.438058,-3.041958 -2.93757,-5.172307 -5.312007,-7.546744 C 46.645294,8.6415445 44.514946,7.1420334 41.472986,5.7039746 37.31888,3.7401582 35.257487,3.309897 30.002897,3.309897 c -3.876896,0 -4.808427,0.084525 -6.746875,0.6121977 -2.769847,0.7539908 -6.658247,2.5664972 -8.824256,4.1132657 -2.081388,1.4863401 -4.9399834,4.3449356 -6.4263234,6.4263236 -1.546768,2.166009 -3.359275,6.054409 -4.113266,8.824256 -0.895238,3.288731 -0.895238,10.205018 0,13.49375 2.742202,10.0737 10.7203634,17.586348 20.9513454,19.728862 2.668759,0.558877 9.343758,0.336929 12.038541,-0.400291 z M 18.409862,44.869238 c -2.342145,-0.849723 -2.802636,-1.901352 -3.06723,-7.004659 -0.244646,-4.718571 -0.522094,-5.434089 -2.278615,-5.876388 l -1.185079,-0.298405 v -1.670552 c 0,-1.782334 -0.06404,-1.701462 1.648834,-2.082327 1.196221,-0.265985 1.549797,-1.365126 1.827462,-5.680916 0.377205,-5.862963 1.221474,-7.105642 5.01178,-7.376837 l 1.830674,-0.130984 v 1.588642 1.588641 l -1.240681,0.139843 c -0.686668,0.0774 -1.377188,0.326528 -1.546381,0.557914 -0.168136,0.229939 -0.380501,1.879135 -0.471922,3.664879 -0.203874,3.982294 -0.654332,5.610956 -1.880621,6.799523 l -0.920773,0.892447 1.014957,1.153052 c 1.257324,1.428395 1.607302,2.734738 1.796293,6.704912 0.07966,1.67349 0.248303,3.243818 0.374756,3.489621 0.138119,0.268478 0.7099,0.518891 1.432105,0.627192 l 1.202189,0.18028 -0.0784,1.489474 -0.0784,1.489475 -1.190625,0.06074 c -0.654843,0.03341 -1.64499,-0.104098 -2.200326,-0.30557 z m 19.398243,-1.140743 v -1.588966 l 1.318146,-0.174858 c 0.863984,-0.114612 1.404967,-0.337084 1.570133,-0.6457 0.138592,-0.258961 0.326686,-1.832724 0.417986,-3.497249 0.230788,-4.207579 0.512874,-5.295479 1.732291,-6.680811 l 1.021823,-1.160852 -0.908539,-0.880589 c -0.499698,-0.484325 -1.024409,-1.246362 -1.16603,-1.693415 -0.299325,-0.944889 -0.81081,-5.424939 -0.81081,-7.101826 0,-1.565667 -0.435734,-2.070021 -1.934318,-2.238933 l -1.240682,-0.139843 v -1.399776 c 0,-1.33499 0.03613,-1.407712 0.780733,-1.571254 1.147548,-0.252043 3.083202,0.110823 4.031908,0.755839 1.398445,0.950787 1.763245,2.026256 1.941455,5.723594 0.17994,3.733243 0.520025,5.644655 1.088223,6.116217 0.213122,0.176874 0.827741,0.392756 1.365816,0.479735 l 0.978323,0.158141 0.07805,1.774299 c 0.07705,1.751443 0.06852,1.776425 -0.661459,1.939213 -1.488371,0.331909 -1.687393,0.432263 -2.096971,1.057357 -0.300432,0.458517 -0.484097,1.766871 -0.655727,4.671121 -0.356788,6.037402 -1.183598,7.282066 -5.019681,7.556537 l -1.830673,0.130982 z M 21.259737,31.474863 c -0.275467,-0.304388 -0.490799,-0.937067 -0.490799,-1.442048 0,-1.248532 0.734118,-1.984375 1.979721,-1.984375 1.119129,0 2.094863,0.924271 2.094863,1.984375 0,0.324553 -0.246767,0.903808 -0.54837,1.287235 -0.703934,0.894905 -2.292325,0.975918 -3.035415,0.154813 z m 7.287951,0.01316 c -0.32758,-0.327581 -0.529166,-0.881944 -0.529166,-1.455208 0,-0.573265 0.201586,-1.127628 0.529166,-1.455209 0.327581,-0.32758 0.881944,-0.529166 1.455209,-0.529166 0.573265,0 1.127628,0.201586 1.455208,0.529166 0.327581,0.327581 0.529167,0.881944 0.529167,1.455209 0,0.573264 -0.201586,1.127627 -0.529167,1.455208 -0.32758,0.327581 -0.881943,0.529167 -1.455208,0.529167 -0.573265,0 -1.127628,-0.201586 -1.455209,-0.529167 z m 7.264017,-0.120266 c -0.357188,-0.357188 -0.649433,-0.957911 -0.649433,-1.334942 0,-1.770367 2.592559,-2.676002 3.684963,-1.287235 1.640319,2.085326 -1.156451,4.501258 -3.03553,2.622177 z"
       id="path302" /></g></svg>
