<?xml version="1.0" encoding="UTF-8" standalone="no"?>
<!-- Created with Inkscape (http://www.inkscape.org/) -->

<svg
   width="100"
   height="100"
   viewBox="0 0 26.458333 26.458333"
   version="1.1"
   id="svg5"
   xml:space="preserve"
   inkscape:version="1.2.2 (b0a8486541, 2022-12-01)"
   sodipodi:docname="unittest.svg"
   xmlns:inkscape="http://www.inkscape.org/namespaces/inkscape"
   xmlns:sodipodi="http://sodipodi.sourceforge.net/DTD/sodipodi-0.dtd"
   xmlns="http://www.w3.org/2000/svg"
   xmlns:svg="http://www.w3.org/2000/svg"><sodipodi:namedview
     id="namedview7"
     pagecolor="#ffffff"
     bordercolor="#000000"
     borderopacity="0.25"
     inkscape:showpageshadow="2"
     inkscape:pageopacity="0.0"
     inkscape:pagecheckerboard="0"
     inkscape:deskcolor="#d1d1d1"
     inkscape:document-units="mm"
     showgrid="false"
     inkscape:zoom="3.5705387"
     inkscape:cx="53.213259"
     inkscape:cy="69.457306"
     inkscape:window-width="2560"
     inkscape:window-height="1285"
     inkscape:window-x="1920"
     inkscape:window-y="32"
     inkscape:window-maximized="1"
     inkscape:current-layer="layer1" /><defs
     id="defs2" /><g
     inkscape:label="Layer 1"
     inkscape:groupmode="layer"
     id="layer1"><path
       style="fill:#000000;stroke-width:0.136922"
       d="M 1.703806,25.231688 C 1.581817,25.109698 1.5395,23.736398 1.5395,19.899498 v -5.167886 l 0.30431,-0.213147 c 0.23833,-0.16693 0.698479,-0.213143 2.122289,-0.213143 H 5.784078 V 13.483791 12.66226 H 3.966099 c -1.42381,0 -1.883959,-0.04621 -2.122289,-0.213148 L 1.5395,12.235964 V 7.0680802 c 0,-3.836905 0.04232,-5.210199 0.164306,-5.33219 0.235445,-0.235441 9.568161,-0.235441 9.803605,0 0.115134,0.115134 0.164306,0.873256 0.164306,2.533054 v 2.368747 h 1.779983 1.779988 v -2.368747 c 0,-1.659798 0.04916,-2.41792 0.164306,-2.533054 0.235442,-0.235441 9.56816,-0.235441 9.803607,0 0.12199,0.121991 0.164306,1.495285 0.164306,5.33219 v 5.1678838 l -0.304311,0.213148 c -0.238329,0.16693 -0.69848,0.213148 -2.122288,0.213148 h -1.817977 v 0.821531 0.821531 h 1.817977 c 1.423808,0 1.883959,0.04621 2.122288,0.213143 l 0.304311,0.213147 v 5.167886 c 0,3.8369 -0.04233,5.2102 -0.164306,5.33219 -0.249477,0.24947 -9.602533,0.23419 -9.8102,-0.016 -0.08795,-0.10597 -0.165435,-0.96696 -0.18792,-2.08806 l -0.03824,-1.90773 h -1.711523 -1.711522 l -0.03824,1.90773 c -0.02246,1.1211 -0.09997,1.98209 -0.18792,2.08806 -0.207664,0.25022 -9.56072,0.2655 -9.810196,0.016 z m 8.32485,-4.08028 v -2.60151 H 6.605609 3.182563 v 2.60151 2.60152 h 3.423046 3.423047 z m -5.204232,1.14947 c -0.76999,-0.72024 -0.903647,-1.00975 -0.670496,-1.45237 0.317855,-0.60341 0.750459,-0.67619 1.375201,-0.23133 l 0.403473,0.2873 1.06328,-0.69806 c 1.056297,-0.69348 1.295875,-0.77802 1.731306,-0.61093 0.285441,0.10953 0.485042,0.61684 0.38828,0.98685 -0.07737,0.29588 -3.067632,2.34906 -3.42118,2.34906 -0.107682,0 -0.499121,-0.28373 -0.869864,-0.63052 z m 18.896421,-1.14947 v -2.60151 h -3.42305 -3.423045 v 2.60151 2.60152 h 3.423045 3.42305 z m -4.761802,1.56684 c -0.358658,-0.25121 -0.41961,-1.02685 -0.101445,-1.29091 0.17921,-0.14872 0.17921,-0.20214 0,-0.45799 -0.264686,-0.3779 -0.258797,-0.97474 0.01232,-1.24583 0.280428,-0.28043 0.861229,-0.27479 1.177509,0.0114 0.232994,0.21086 0.267791,0.21086 0.50079,0 0.316275,-0.28623 0.897076,-0.29187 1.177504,-0.0114 0.271092,0.27109 0.276981,0.86793 0.01232,1.24583 -0.17921,0.25585 -0.17921,0.30927 0,0.45799 0.342606,0.28435 0.25638,1.05192 -0.147932,1.31683 -0.327293,0.21445 -0.382717,0.21463 -0.827296,0.003 -0.428697,-0.20444 -0.516455,-0.20657 -0.874705,-0.0213 -0.495573,0.25627 -0.553461,0.25582 -0.929016,-0.007 z m -3.76106,-5.60603 c 0.04425,-2.963843 -0.09246,-2.806896 2.445006,-2.806896 h 1.833275 V 13.483791 12.66226 h -1.833275 c -2.494308,0 -2.39884,0.09357 -2.444561,-2.396139 l -0.03519,-1.9169018 h -1.711523 -1.711527 l -0.03519,1.9169018 c -0.0457,2.489713 0.04973,2.396139 -2.444559,2.396139 H 7.427141 v 0.821531 0.821531 h 1.81798 c 2.566678,0 2.426596,-0.157217 2.426596,2.723376 0,1.2634 0.04285,2.33997 0.09528,2.39237 0.0524,0.0524 0.837992,0.0781 1.745755,0.0571 l 1.650472,-0.0382 z m -5.169327,-0.61615 V 16.085304 H 6.605609 3.182563 v 0.410764 0.41077 h 3.423046 3.423047 z m 13.692189,0 v -0.410764 h -3.42305 -3.423045 v 0.410764 0.41077 h 3.423045 3.42305 z M 10.028656,8.3492192 V 5.8161602 H 6.605609 3.182563 v 2.533059 2.5330528 h 3.423046 3.423047 z M 4.708565,9.3158672 C 4.321106,8.9061832 4.004094,8.4720792 4.004094,8.3511912 c 0,-0.276677 0.604366,-0.891969 0.876133,-0.891969 0.112184,0 0.373889,0.146158 0.581567,0.324799 l 0.377595,0.324793 1.122333,-0.746897 c 0.720106,-0.479221 1.232782,-0.73057 1.430518,-0.701332 0.428652,0.06338 0.868892,0.686619 0.74988,1.061595 -0.113918,0.358922 -3.025906,2.3385608 -3.439956,2.3385608 -0.172462,0 -0.573391,-0.3005688 -0.993599,-0.7448738 z m 19.01228,-0.966648 v -2.533059 h -3.42305 -3.423045 v 2.533059 2.5330528 h 3.423045 3.42305 z m -5.320091,0.966648 c -0.387463,-0.409684 -0.704473,-0.843788 -0.704473,-0.964676 0,-0.276677 0.604368,-0.891969 0.876133,-0.891969 0.112183,0 0.373888,0.146158 0.581566,0.324799 l 0.377599,0.324793 1.122333,-0.746897 c 0.720101,-0.479221 1.232778,-0.73057 1.430515,-0.701332 0.428656,0.06338 0.868893,0.686619 0.749878,1.061595 -0.113917,0.358922 -3.025905,2.3385608 -3.439957,2.3385608 -0.172462,0 -0.573389,-0.3005688 -0.993594,-0.7448738 z M 10.028656,3.6254122 V 3.2146462 H 6.605609 3.182563 v 0.410766 0.410766 h 3.423046 3.423047 z m 13.692189,0 v -0.410766 h -3.42305 -3.423045 v 0.410766 0.410766 h 3.423045 3.42305 z"
       id="path248" /></g></svg>
