<?xml version="1.0" encoding="UTF-8" standalone="no"?>
<!-- Created with Inkscape (http://www.inkscape.org/) -->

<svg
   width="45mm"
   height="45mm"
   viewBox="0 0 45 45"
   version="1.1"
   id="svg5"
   xml:space="preserve"
   inkscape:version="1.2.1 (9c6d41e410, 2022-07-14)"
   sodipodi:docname="python.svg"
   xmlns:inkscape="http://www.inkscape.org/namespaces/inkscape"
   xmlns:sodipodi="http://sodipodi.sourceforge.net/DTD/sodipodi-0.dtd"
   xmlns="http://www.w3.org/2000/svg"
   xmlns:svg="http://www.w3.org/2000/svg"><sodipodi:namedview
     id="namedview7"
     pagecolor="#ffffff"
     bordercolor="#000000"
     borderopacity="0.25"
     inkscape:showpageshadow="2"
     inkscape:pageopacity="0.0"
     inkscape:pagecheckerboard="0"
     inkscape:deskcolor="#d1d1d1"
     inkscape:document-units="mm"
     showgrid="false"
     inkscape:zoom="0.89263468"
     inkscape:cx="354.0082"
     inkscape:cy="292.39285"
     inkscape:window-width="2560"
     inkscape:window-height="1285"
     inkscape:window-x="1920"
     inkscape:window-y="32"
     inkscape:window-maximized="1"
     inkscape:current-layer="layer1" /><defs
     id="defs2" /><g
     inkscape:label="Layer 1"
     inkscape:groupmode="layer"
     id="layer1"><path
       style="fill:#054848;stroke-width:0.0832588;fill-opacity:1"
       d="m 19.451066,43.903667 c -1.857424,-0.409588 -3.275227,-1.552856 -4.053008,-3.268213 -0.474663,-1.046851 -0.481583,-1.148215 -0.483161,-7.07821 l -0.0015,-5.432646 H 10.70531 c -4.7490875,0 -5.0027014,-0.02405 -6.1576541,-0.583357 C 3.1378425,26.858458 2.1295334,25.701321 1.6098913,24.169794 L 1.3838949,23.503722 V 20.54803 17.592335 l 0.2259964,-0.666073 c 0.5196421,-1.531527 1.5279512,-2.688664 2.9378162,-3.371443 1.1549527,-0.55933 1.4085665,-0.583357 6.1576545,-0.583357 h 4.20809 l 0.0015,-3.2679157 c 0.0016,-3.6975761 0.03376,-3.9820842 0.574504,-5.0889258 0.716786,-1.4671752 1.915164,-2.4865548 3.503738,-2.9804035 0.60316,-0.1875082 0.722335,-0.1941228 3.49688,-0.1941228 2.553244,0 2.927946,0.017024 3.371987,0.1532678 1.525711,0.4681019 2.878787,1.5754533 3.527295,2.8867171 0.653426,1.3212078 0.622908,1.0006625 0.655862,6.8886479 l 0.02949,5.266129 h 4.102006 c 2.58564,0 4.284624,0.03334 4.596031,0.0902 1.722101,0.314425 3.216603,1.447502 3.99916,3.032008 0.572399,1.158983 0.613299,1.478242 0.613299,4.787394 0,3.209302 -0.04644,3.616856 -0.526205,4.618485 -0.606315,1.265814 -1.436292,2.105323 -2.676375,2.707103 -1.14921,0.557685 -1.420946,0.584014 -6.027007,0.584014 h -4.077442 l -0.03323,3.434433 c -0.03702,3.825937 -0.03364,3.799372 -0.639608,5.024736 -0.766343,1.549671 -2.387003,2.749374 -4.086578,3.025115 -0.79409,0.128837 -5.245408,0.102521 -5.867624,-0.03468 z m 5.942823,-2.687195 c 0.906704,-0.362102 1.456846,-0.895159 1.810004,-1.753801 0.192301,-0.467541 0.194476,-0.508959 0.196431,-3.740691 l 0.0019,-3.267917 -2.143918,-1.67e-4 c -1.876576,-8.2e-5 -2.179518,-0.01828 -2.429406,-0.145703 -0.429298,-0.218903 -0.614827,-0.527311 -0.650372,-1.081119 -0.03473,-0.540919 0.128675,-0.897422 0.532664,-1.162218 0.215543,-0.141279 0.688245,-0.152708 7.934392,-0.191857 l 7.7052,-0.04163 0.478462,-0.193213 c 0.587745,-0.237341 1.336444,-0.904289 1.600838,-1.426044 0.107478,-0.21211 0.236243,-0.606463 0.286132,-0.876339 0.118802,-0.642629 0.118802,-4.940074 0,-5.582704 -0.186151,-1.006943 -0.792468,-1.786329 -1.74099,-2.237906 l -0.541184,-0.257648 -4.179141,-0.02508 -4.179142,-0.02505 -0.02543,1.788459 c -0.02791,1.961896 -0.03742,2.000387 -0.598644,2.419472 -0.226392,0.169058 -0.318862,0.172004 -6.096061,0.194123 l -5.866181,0.02247 0.02331,7.678999 0.02329,7.678995 0.19321,0.47846 c 0.383063,0.948605 1.374167,1.743539 2.364837,1.896763 0.241602,0.03737 1.432139,0.05944 2.645641,0.04906 2.037148,-0.01744 2.240699,-0.0326 2.65409,-0.197698 z m -0.962665,-4.438837 c -0.567805,-0.169832 -1.02203,-0.917675 -0.89214,-1.468832 0.134373,-0.570179 0.56936,-0.986406 1.07404,-1.02771 0.578705,-0.04736 0.72782,0.0028 1.093323,0.368377 0.3655,0.365503 0.415743,0.514617 0.368376,1.093323 -0.05999,0.733068 -0.894946,1.258769 -1.643599,1.034842 z m -9.516402,-13.00332 c 0.0013,-1.677268 0.01102,-1.786119 0.187332,-2.093623 0.381948,-0.666219 0.04029,-0.633108 6.533163,-0.633108 H 27.4023 L 27.4004,13.741606 27.3985,6.4356308 27.204047,5.9628529 C 26.850751,5.1038435 26.299709,4.5701027 25.394058,4.2096718 24.989645,4.0487258 24.748987,4.0282274 22.906485,3.9978042 c -2.325629,-0.0384 -3.061399,0.034395 -3.721078,0.3681627 -0.585081,0.2960254 -1.208914,0.9785153 -1.454445,1.5912029 -0.18685,0.4662608 -0.192443,0.5618007 -0.219263,3.7463765 l -0.02752,3.2679157 2.232416,1.64e-4 c 1.960831,8.5e-5 2.267146,0.01784 2.517906,0.145706 0.429295,0.218901 0.614827,0.527313 0.650372,1.081116 0.03596,0.560364 -0.139276,0.918535 -0.58125,1.18801 -0.265432,0.161838 -0.434812,0.165462 -7.764663,0.16624 -4.460761,6.29e-4 -7.6936132,0.0336 -7.9882535,0.08185 -0.9799565,0.160474 -1.8618932,0.811344 -2.2838529,1.685493 -0.2925154,0.605984 -0.3629147,1.407109 -0.3239057,3.685957 0.032679,1.909073 0.051074,2.121103 0.2220862,2.559937 0.3645626,0.935495 1.3306456,1.725958 2.3103336,1.890344 0.222071,0.03726 2.2115263,0.07216 4.4210113,0.07754 l 4.017247,0.0098 0.0013,-1.769251 z M 19.655214,11.118667 C 19.077456,10.729314 18.882489,9.952332 19.21649,9.370264 c 0.215367,-0.3753247 0.800423,-0.6661579 1.246895,-0.6198403 0.993624,0.1030827 1.513661,1.3149633 0.884916,2.0621823 -0.440812,0.523873 -1.173368,0.6563 -1.693087,0.306061 z"
       id="path856" /></g></svg>
